<?xml version="1.0" standalone="no"?>
<!DOCTYPE svg PUBLIC "-//W3C//DTD SVG 20010904//EN"
 "http://www.w3.org/TR/2001/REC-SVG-20010904/DTD/svg10.dtd">
<svg version="1.0" xmlns="http://www.w3.org/2000/svg"
 width="1024.000000pt" height="1024.000000pt" viewBox="0 0 1024.000000 1024.000000"
 preserveAspectRatio="xMidYMid meet">

<g transform="translate(0.000000,1024.000000) scale(0.100000,-0.100000)"
fill="#000000" stroke="none">
<path d="M4800 8004 c-461 -59 -892 -237 -1280 -528 -119 -89 -335 -298 -433
-419 -321 -395 -513 -854 -573 -1373 -20 -172 -14 -537 11 -683 81 -477 266
-883 571 -1256 98 -120 297 -315 414 -406 479 -373 1080 -566 1700 -546 402
13 726 91 1065 257 493 242 880 614 1158 1115 279 501 373 1103 261 1676 -30
157 -51 229 -67 229 -7 0 -123 -111 -260 -248 l-247 -247 0 -145 c0 -241 -30
-434 -101 -645 -339 -1012 -1415 -1575 -2454 -1284 -531 149 -966 504 -1210
987 -287 567 -289 1266 -5 1832 115 229 298 462 489 622 369 308 828 477 1301
478 369 0 729 -99 1053 -292 l38 -22 209 209 c116 116 210 215 210 221 0 14
-168 123 -292 189 -208 109 -486 207 -710 250 -239 45 -621 58 -848 29z"/>
<path d="M7420 7281 c-14 -5 -41 -16 -60 -25 -19 -10 -492 -474 -1050 -1032
l-1015 -1014 -350 351 c-193 193 -369 364 -392 380 -54 38 -152 63 -216 56
-112 -14 -216 -91 -266 -196 -22 -47 -26 -70 -26 -141 1 -154 -17 -131 573
-723 342 -342 531 -524 558 -537 22 -11 61 -20 85 -20 89 0 120 25 499 407
195 197 731 736 1191 1198 l836 840 18 67 c21 79 16 143 -16 218 -27 64 -111
142 -175 164 -49 17 -150 20 -194 7z"/>
</g>
</svg>
